<svg width="19" height="23" viewBox="0 0 19 23" fill="none" xmlns="http://www.w3.org/2000/svg">
<path fill-rule="evenodd" clip-rule="evenodd" d="M6.25077 0.96483C6.67491 0.663354 7.18933 0.499714 7.71907 0.5H11.2821C11.8118 0.499714 12.3263 0.663354 12.7504 0.96483C13.1743 1.26615 13.485 1.68861 13.6405 2.16871C13.7959 2.64858 13.7891 3.16354 13.6208 3.63953C13.4525 4.11575 13.1305 4.5305 12.6984 4.82125L11.8993 5.35903L12.799 5.70308C13.2391 5.8714 13.6638 6.0711 14.0674 6.30082L14.6209 6.6159L14.7956 6.00337C14.8514 5.80731 14.9579 5.62637 15.1067 5.47789C15.2556 5.32931 15.4421 5.21812 15.6498 5.15609C15.8575 5.09404 16.0784 5.08358 16.2917 5.12585C16.5049 5.16812 16.7023 5.26146 16.8661 5.39584C17.0297 5.53014 17.1542 5.70083 17.2297 5.8912C17.3052 6.08146 17.3298 6.28634 17.3017 6.48736C17.2736 6.68842 17.1936 6.88074 17.0675 7.04635C16.9413 7.21207 16.7727 7.34599 16.5763 7.43422L15.9634 7.70948L16.4031 8.21751C17.5016 9.48698 18.2019 11.0318 18.4238 12.6702C18.6457 14.3085 18.3805 15.9747 17.6583 17.4735C16.9359 18.9724 15.7857 20.2431 14.3406 21.1344C12.8954 22.0257 11.2161 22.5 9.5 22.5C7.78393 22.5 6.1046 22.0257 4.65935 21.1344C3.21425 20.2431 2.06407 18.9724 1.34174 17.4735C0.619486 15.9747 0.354259 14.3085 0.576185 12.6702C0.798092 11.0321 1.49943 9.48714 2.59812 8.21751L3.03775 7.70948L2.42489 7.43422C2.22844 7.34599 2.0599 7.21207 1.9337 7.04635C1.80758 6.88074 1.72753 6.68842 1.69947 6.48736C1.67141 6.28634 1.69598 6.08147 1.77144 5.8912C1.84695 5.70083 1.97145 5.53014 2.1351 5.39584C2.29885 5.26146 2.49626 5.16812 2.70952 5.12585C2.92282 5.08358 3.14372 5.09404 3.35141 5.15609C3.55905 5.21812 3.74558 5.32931 3.89448 5.47789C4.0433 5.62637 4.14973 5.80731 4.20563 6.00337L4.38031 6.61605L4.93391 6.30076C5.33942 6.06982 5.76321 5.87006 6.20136 5.7034L7.10362 5.3602L6.30275 4.82125C5.8707 4.5305 5.54866 4.11575 5.38034 3.63953C5.21211 3.16354 5.20526 2.64858 5.36067 2.16871C5.51615 1.68861 5.82686 1.26615 6.25077 0.96483ZM7.71934 1.80005C7.43434 1.80005 7.15792 1.90955 6.95166 2.10929C6.74485 2.30957 6.62559 2.58469 6.62559 2.87507C6.62559 3.16544 6.74485 3.44056 6.95166 3.64084C7.15792 3.84059 7.43434 3.95008 7.71934 3.95008H11.2818C11.5668 3.95008 11.8433 3.84059 12.0495 3.64084C12.2563 3.44056 12.3756 3.16544 12.3756 2.87507C12.3756 2.58469 12.2563 2.30957 12.0495 2.10929C11.8433 1.90954 11.5668 1.80005 11.2818 1.80005H7.71934ZM9.50059 6.40016C7.4834 6.40016 5.54572 7.17604 4.11462 8.56199C2.68297 9.94846 1.8756 11.8324 1.8756 13.8003C1.8756 15.7682 2.68297 17.6522 4.11462 19.0386C5.54572 20.4246 7.4834 21.2005 9.50059 21.2005C11.5178 21.2005 13.4555 20.4246 14.8866 19.0386C16.3182 17.6522 17.1256 15.7682 17.1256 13.8003C17.1256 11.8324 16.3182 9.94846 14.8866 8.56199C13.4555 7.17604 11.5178 6.40016 9.50059 6.40016ZM9.00874 8.74619C9.13653 8.62243 9.31318 8.55018 9.50059 8.55018C9.68801 8.55018 9.86465 8.62243 9.99244 8.74619C10.1197 8.86942 10.1881 9.03308 10.1881 9.20021V13.1503H13.0631C13.2505 13.1503 13.4271 13.2225 13.5549 13.3463C13.6822 13.4695 13.7506 13.6332 13.7506 13.8003C13.7506 13.9674 13.6822 14.1311 13.5549 14.2543C13.4271 14.3781 13.2505 14.4503 13.0631 14.4503L9.50059 14.4503L9.49913 14.4503C9.40677 14.4506 9.31563 14.4332 9.23107 14.3994C9.14653 14.3656 9.07076 14.3164 9.0077 14.2553C8.94467 14.1943 8.89562 14.1227 8.86255 14.045C8.82949 13.9674 8.81283 13.8848 8.81309 13.8019L8.81309 13.8003V9.20021C8.81309 9.03308 8.8815 8.86942 9.00874 8.74619Z" fill="black"/>
</svg>
