<svg width="13" height="14" viewBox="0 0 13 14" fill="none" xmlns="http://www.w3.org/2000/svg">
<path d="M10.5892 6.41485C10.3427 5.81746 9.98441 5.28128 9.53672 4.83985L9.16728 4.47481C9.15474 4.46275 9.13964 4.4542 9.12331 4.44989C9.10698 4.44559 9.08992 4.44567 9.07363 4.45012C9.05733 4.45458 9.04231 4.46327 9.02986 4.47544C9.01741 4.48761 9.00793 4.50289 9.00225 4.51992L8.83721 5.02988C8.73437 5.34981 8.54521 5.67656 8.27734 5.99785C8.25957 6.01836 8.23926 6.02383 8.22529 6.0252C8.21133 6.02656 8.18975 6.02383 8.1707 6.00469C8.15293 5.98828 8.14404 5.96367 8.14531 5.93906C8.19228 5.11602 7.96377 4.1877 7.46357 3.17735C7.04971 2.33789 6.47461 1.68301 5.75605 1.22637L5.23174 0.894143C5.16318 0.850393 5.07559 0.907815 5.07939 0.993947L5.10732 1.6502C5.12637 2.09863 5.07812 2.49512 4.96387 2.82461C4.82422 3.22793 4.62363 3.60254 4.36719 3.93887C4.18872 4.17261 3.98644 4.38402 3.76416 4.56914C3.22881 5.01234 2.79349 5.58022 2.49082 6.23028C2.18889 6.886 2.03162 7.60793 2.03125 8.33985C2.03125 8.98516 2.14932 9.60996 2.38291 10.1992C2.60846 10.7666 2.93396 11.2815 3.34141 11.7154C3.75273 12.1529 4.23008 12.4975 4.76201 12.7367C5.31299 12.9855 5.89697 13.1113 6.5 13.1113C7.10303 13.1113 7.68701 12.9855 8.23799 12.7381C8.76861 12.5002 9.25113 12.1533 9.65859 11.7168C10.0699 11.2793 10.3924 10.768 10.6171 10.2006C10.8503 9.61294 10.97 8.98029 10.9687 8.34121C10.9687 7.67402 10.8418 7.02598 10.5892 6.41485V6.41485Z" fill="white"/>
</svg>
