<svg width="60" height="66" viewBox="0 0 60 66" fill="none" xmlns="http://www.w3.org/2000/svg">
<path d="M40.1117 46.4734C38.5689 46.5076 37.4998 46.5222 37.5925 48.6039C37.6706 50.3394 37.8903 51.2852 39.9701 51.1829C41.6691 51.1 42.665 50.788 42.2598 48.7258C42.7822 46.9561 41.9132 46.4296 40.1117 46.4734Z" fill="white"/>
<path d="M48.2355 51.1682C49.7441 51.0463 51.1111 51.1487 50.6375 48.911C50.9695 47.4046 50.7254 46.2881 48.6603 46.488C47.3226 46.6148 45.8335 46.1711 45.9995 48.4527C46.1118 50.0128 45.9702 51.3486 48.2355 51.1682Z" fill="white"/>
<path d="M48.4454 41.9785C50.2957 41.9542 50.9939 41.3399 50.6326 39.4239C51.155 37.6104 50.1981 37.196 48.4405 37.1814C46.7465 37.1667 45.9556 37.4934 45.9751 39.4337C45.9946 41.3009 46.4779 42.0029 48.4503 41.9785H48.4454Z" fill="white"/>
<path d="M40.1215 37.1815C38.5397 37.2448 37.5145 37.3131 37.5975 39.3558C37.6707 41.0621 37.8367 42.081 39.9555 41.9786C41.6545 41.8958 42.6553 41.5691 42.2891 39.6581C42.5723 37.9469 42.0646 37.1035 40.1215 37.1815Z" fill="white"/>
<path d="M48.2404 32.5695C49.8759 32.8279 50.8963 32.5208 50.74 30.4927C50.6277 29.0204 50.7498 27.8114 48.6261 27.9186C46.9662 28.0064 45.8579 28.0844 45.98 30.2441C46.0728 31.8968 46.2778 32.9839 48.2404 32.5695Z" fill="white"/>
<path d="M42.3184 56.8918C42.3331 55.0636 40.9709 55.4146 39.8969 55.4097C38.8961 55.4049 37.6462 55.1075 37.6609 56.7992C37.6755 59.3879 37.6707 61.9766 37.6755 64.5653C37.6755 65.1991 37.9001 65.5696 38.5934 65.7548C41.2102 66.4569 42.3184 65.6573 42.3282 62.9565C42.3282 62.1472 42.3282 61.3379 42.3282 60.5287H42.3135C42.3135 59.3148 42.3086 58.1008 42.3135 56.8869L42.3184 56.8918Z" fill="white"/>
<path d="M31.6413 37.1716C29.9081 37.1716 29.1953 37.547 29.2246 39.4435C29.2539 41.257 29.6396 42.037 31.651 41.9785C33.4818 41.9249 34.2141 41.3496 33.8626 39.5458C34.2434 37.7177 33.4574 37.1716 31.6461 37.1716H31.6413Z" fill="white"/>
<path d="M39.8774 32.6476C41.4738 32.633 42.4405 32.4818 42.3868 30.4635C42.3379 28.6646 41.962 27.8455 39.9506 27.9089C38.1979 27.9626 37.3045 28.3916 37.7195 30.3855C37.202 32.1698 38.1052 32.6622 39.8774 32.6427V32.6476Z" fill="white"/>
<path d="M33.9115 56.9746C33.931 55.8338 33.4477 55.4535 32.3297 55.3755C29.4932 55.1854 29.2979 55.317 29.2881 58.169C29.2881 58.9783 29.2881 59.7876 29.293 60.5968C29.293 61.8108 29.3516 63.0247 29.2784 64.2337C29.1661 66.1106 30.4989 65.7743 31.573 65.7596C32.6372 65.7499 33.9652 66.1399 33.9164 64.2483C33.848 61.8254 33.8724 59.3975 33.9164 56.9697L33.9115 56.9746Z" fill="white"/>
<path d="M31.6168 27.9137C29.5615 27.7918 29.2978 28.7084 29.2246 30.4634C29.1416 32.472 30.0692 32.6134 31.6803 32.6573C33.5404 32.706 34.219 32.043 33.8382 30.1514C34.3557 28.294 33.3012 28.0161 31.6168 27.9137Z" fill="white"/>
<path d="M31.8415 46.4833C30.4745 46.6198 29.0587 46.2395 29.2442 48.4821C29.3712 50.0178 29.1515 51.3828 31.4558 51.1732C32.9742 51.0367 34.3216 51.1147 33.8676 49.0232C34.0775 47.4485 33.9408 46.2688 31.8415 46.4784V46.4833Z" fill="white"/>
<path d="M50.696 60.6797C50.696 59.4658 50.6423 58.2519 50.7107 57.0429C50.8132 55.2732 49.6317 55.3853 48.46 55.3902C47.2249 55.3951 45.9555 55.2098 46.0239 57.1306C46.1069 59.3927 46.0922 61.6596 46.0239 63.9217C45.9848 65.2526 46.4535 65.7353 47.8303 65.8133C49.8856 65.9254 51.1257 65.5159 50.7253 63.0978C50.5935 62.3129 50.7058 61.4841 50.696 60.6749V60.6797Z" fill="white"/>
<path d="M19.2164 3.75244C24.738 3.71831 30.2597 3.82557 35.7813 3.68906C37.6707 3.64031 38.154 4.26921 38.071 6.02427C37.949 8.5301 38.0613 11.0506 38.032 13.5613C38.0173 14.8581 37.9929 15.8867 39.8676 15.9257C41.8937 15.9696 41.84 14.8532 41.8253 13.4589C41.7912 9.81227 41.7277 6.1559 41.8497 2.51415C41.9132 0.666461 41.4445 -0.0891899 39.438 0.00831338C36.1182 0.169194 32.7837 0.0521899 29.4541 0.0521899C26.0416 0.0521899 22.6339 0.0814409 19.2213 0.0375644C17.8641 0.0180637 16.9072 0.0960664 16.8974 1.9145C16.8876 3.76707 17.8836 3.76219 19.2213 3.75244H19.2164Z" fill="white"/>
<path d="M0.0443944 36.8012C0.0443944 45.7276 0.0834511 54.654 0.0102198 63.5805C-0.00442645 65.2429 0.410551 65.9498 2.17298 65.8035C3.78895 65.667 5.42933 65.6817 7.0453 65.8035C8.72962 65.9254 9.31547 65.3258 9.30083 63.6146C9.27642 60.2264 9.36918 60.2264 12.8257 60.2264C13.3139 60.2264 13.8021 60.2605 14.2903 60.2264C15.3741 60.1386 15.8526 60.5091 15.9502 61.6987C16.292 65.784 16.3408 65.7792 20.3832 65.7792C21.2766 65.7792 22.1798 65.6963 23.0634 65.7938C24.8161 65.9937 25.2408 65.2185 25.2408 63.561C25.192 45.869 25.1823 28.177 25.2506 10.4899C25.2604 8.59347 24.572 8.16933 22.8437 8.18883C16.0186 8.26196 9.18854 8.26684 2.36338 8.18883C0.586306 8.15958 -0.0190727 8.65198 0.000455631 10.5094C0.0932152 19.275 0.0443944 28.0356 0.0443944 36.8012ZM5.33658 32.9157C7.76297 33.0278 10.1991 32.9449 12.6353 32.9449C14.9885 32.9449 17.3416 33.0229 19.6899 32.9206C21.3254 32.8474 21.2717 33.8176 21.2766 34.9389C21.2766 36.0065 21.2229 36.7963 19.7583 36.7768C14.9738 36.7086 10.1894 36.6988 5.40492 36.7817C3.95983 36.8061 3.81336 36.1089 3.8866 35.0071C3.95494 34.0175 3.54973 32.8425 5.33658 32.9206V32.9157ZM19.729 55.4438C17.3026 55.3804 14.8762 55.4243 12.4498 55.4292C10.1015 55.4292 7.75321 55.3658 5.41469 55.4584C3.994 55.5121 3.85242 54.7759 3.88171 53.6595C3.90612 52.6211 3.87195 51.7777 5.3561 51.7972C10.1259 51.8654 14.9006 51.8508 19.6753 51.8069C21.0129 51.7972 21.2961 52.4407 21.2815 53.601C21.2668 54.7028 21.1301 55.4779 19.7338 55.4438H19.729ZM19.6948 46.0933C17.2635 46.0104 14.8273 46.0689 12.3912 46.0689C10.038 46.0689 7.67998 45.986 5.33169 46.0981C3.79872 46.1712 3.86707 45.2791 3.8866 44.2602C3.90612 43.2852 3.70108 42.2955 5.27311 42.315C10.0624 42.3735 14.8518 42.3832 19.6362 42.3101C21.218 42.2857 21.2668 43.1486 21.2815 44.3138C21.2961 45.4595 21.0813 46.142 19.6948 46.0933ZM5.48304 14.0927C10.1845 14.1463 14.8908 14.1512 19.5923 14.0927C21.1057 14.0732 21.2571 14.8532 21.2912 16.0671C21.3303 17.4712 20.7493 17.9002 19.4214 17.8563C17.1512 17.7832 14.8811 17.8368 12.6109 17.8368V17.827C10.2577 17.827 7.90455 17.7588 5.55627 17.8514C3.99888 17.9148 3.90124 17.0519 3.87683 15.877C3.85242 14.7021 4.13558 14.078 5.48304 14.0927ZM5.50257 23.5407C10.1942 23.6285 14.8908 23.6139 19.5825 23.5505C21.0813 23.531 21.2619 24.272 21.2912 25.4957C21.3205 26.851 20.8421 27.3824 19.4702 27.3434C17.1268 27.2751 14.7785 27.3239 12.4302 27.3239C10.165 27.3239 7.89479 27.2605 5.63438 27.3482C4.2137 27.4019 3.81336 26.8315 3.86218 25.4957C3.90612 24.3256 3.92565 23.5115 5.50257 23.5407Z" fill="white"/>
<path d="M29.2393 21.4151C29.2246 23.0337 29.9472 23.2531 31.3093 23.2433C38.3834 23.1946 45.4624 23.3067 52.5317 23.1702C54.6359 23.1312 55.2754 23.6187 55.251 25.8223C55.1338 38.1662 55.1827 50.5101 55.2119 62.854C55.2119 64.1606 54.548 65.862 57.1111 65.8279C59.7669 65.7938 58.8442 63.9607 58.854 62.7565C58.9272 56.0971 58.8882 49.4376 58.8882 42.7781C58.8882 35.714 58.8491 28.6499 58.9175 21.5809C58.9321 20.0111 58.4683 19.4797 56.8621 19.4943C48.3233 19.5626 39.7846 19.5479 31.2458 19.5041C29.8105 19.4943 29.249 19.8843 29.2344 21.4151H29.2393Z" fill="white"/>
</svg>
