<svg width="72" height="52" viewBox="0 0 72 52" fill="none" xmlns="http://www.w3.org/2000/svg">
<path d="M19.8381 30.7159C20.5359 29.9779 21.117 29.2351 21.7723 28.4863C21.7723 29.6461 21.7686 30.8058 21.7747 31.9644C21.7759 32.2416 21.5984 32.2258 21.4112 32.2331C16.2129 32.4482 11.0146 32.6671 5.81624 32.8798C4.74157 32.9236 3.85897 32.4178 3.03837 31.8112C1.57224 30.7256 0.369918 29.4248 0.0696401 27.5417C-0.102989 26.4561 0.0951698 25.3571 0.181484 24.2702C0.357761 22.0516 0.603332 19.839 0.833098 17.624C0.856197 17.4028 0.777176 17.2338 0.698156 17.0478C-0.13095 15.1002 0.951021 13.1101 3.04445 12.7466C3.33865 12.6956 3.55262 12.5728 3.75321 12.3442C6.05087 9.72805 8.35949 7.12038 10.6693 4.5127C10.8359 4.32427 10.927 4.12976 10.9611 3.87203C11.2589 1.6157 13.1506 -0.0084766 15.4494 3.32842e-05C17.6973 0.00732747 19.5865 1.6473 19.8272 3.90364C19.9001 4.59173 20.2186 5.04761 20.6344 5.52903C25.5616 11.2258 30.4913 16.9213 35.3772 22.6546C35.8914 23.2576 36.436 23.1968 37.0451 23.1943C37.3818 23.1943 37.2676 22.9147 37.2676 22.7385C37.2736 20.8541 37.2761 18.9698 37.2651 17.0867C37.2627 16.7135 37.3271 16.3718 37.4718 16.0278C39.423 11.3899 41.3718 6.75202 43.3084 2.10805C43.4676 1.72632 43.6561 1.56828 44.0998 1.5695C50.2792 1.58774 56.4574 1.58774 62.6368 1.57193C63.1072 1.57193 63.2373 1.68499 63.2349 2.17005C63.2154 7.21399 63.2288 12.2591 63.213 17.3031C63.2118 17.7954 63.2714 18.0215 63.8561 17.9948C65.0487 17.9413 65.0511 17.9802 65.0511 16.7718C65.0511 14.2188 65.056 11.6671 65.0451 9.11412C65.0438 8.76522 65.084 8.42847 64.887 8.06741C64.6487 7.62976 64.8663 7.40364 65.4013 7.39999C66.11 7.39513 66.8188 7.39391 67.5287 7.39513C68.0588 7.39634 68.2752 7.67717 68.0199 8.13062C67.8995 8.34459 67.8655 8.53059 67.8655 8.74577C67.863 11.6428 67.8691 14.5398 67.8533 17.4368C67.8509 17.827 67.9238 17.9753 68.3627 18.0301C70.027 18.2331 70.9813 19.2239 71.0032 20.8942C71.0518 24.6617 71.064 28.4304 71.0178 32.1978C70.9959 34.0335 69.8155 35.1714 67.8326 35.4996C67.1713 35.6091 66.5051 35.6394 65.8365 35.6394C52.8103 35.6382 39.7841 35.6346 26.7579 35.6528C26.1537 35.6528 25.9859 35.5203 25.998 34.8991C26.0394 32.6525 26.0126 30.4059 26.0114 28.1593C26.0114 27.9161 25.9968 27.6851 25.8692 27.459C24.5781 25.1759 23.2883 22.8916 22.0118 20.6C19.9366 16.8727 17.8711 13.1381 15.8008 9.40711C15.5127 8.88679 15.1115 8.8029 14.6167 9.17126C12.0698 11.0714 9.52899 12.9788 6.97724 14.8717C6.67574 15.0954 6.63319 15.3616 6.53594 15.7032C6.27092 16.6356 6.82163 17.1 7.36504 17.6471C9.98001 20.273 12.5828 22.9123 15.1844 25.5516C16.6311 27.0201 17.9975 28.5665 19.5159 29.9658C19.7323 30.1664 19.9196 30.3743 19.8393 30.7159H19.8381ZM52.8054 3.85258C50.3339 3.85258 47.8624 3.8696 45.3909 3.83799C44.8997 3.83191 44.6809 3.99846 44.501 4.43004C42.9424 8.18168 41.3657 11.9248 39.7938 15.6704C39.7002 15.8941 39.6297 16.1165 39.6309 16.3706C39.6382 18.4774 39.6443 20.5842 39.626 22.691C39.6224 23.0861 39.7318 23.2065 40.1342 23.2053C43.6573 23.1919 47.1792 23.1956 50.7022 23.2053C51.118 23.2053 51.4463 23.0667 51.7356 22.7834C52.2899 22.2412 52.7094 21.5957 53.1373 20.9562C53.6892 20.1332 54.1998 19.2834 54.8539 18.5321C55.1943 18.1395 55.5845 17.9571 56.1243 17.9705C57.481 18.0033 58.8389 17.962 60.1956 17.9912C60.6965 18.0021 60.8922 17.9109 60.8886 17.3395C60.8606 13.0445 60.8643 8.75063 60.8801 4.45557C60.8813 3.98874 60.7731 3.83678 60.2807 3.84164C57.7898 3.86839 55.2976 3.8538 52.8054 3.85258ZM12.8819 4.46286C12.8649 5.86578 14.0015 7.02069 15.4008 7.02434C16.7709 7.02677 17.9088 5.90346 17.9282 4.52851C17.9477 3.10857 16.8365 1.95852 15.4373 1.95001C14.0113 1.9415 12.8989 3.03563 12.8819 4.46408V4.46286ZM3.47603 17.5049C4.42184 17.5146 5.22298 16.7256 5.23271 15.7774C5.24122 14.8425 4.44372 14.028 3.50399 14.0134C2.58614 13.9988 1.75581 14.8194 1.74487 15.7506C1.73393 16.6855 2.53386 17.4964 3.47724 17.5049H3.47603Z" fill="white"/>
<path d="M47.8086 51.925C42.5227 51.925 37.2369 51.9323 31.951 51.9238C28.1422 51.9177 25.1735 49.49 24.3808 45.7602C23.4934 41.5831 26.6396 37.2613 30.8727 36.8285C31.4586 36.7689 32.0422 36.7422 32.6306 36.7422C42.919 36.7434 53.2063 36.7385 63.4947 36.7458C67.1588 36.7483 70.1567 38.9645 71.0734 42.3149C72.3997 47.1644 68.8207 51.9019 63.7877 51.9202C58.4617 51.9396 53.1345 51.925 47.8086 51.925ZM47.8487 38.2521C43.0904 38.2521 38.331 38.2618 33.5727 38.2472C31.9802 38.2423 30.4776 38.5256 29.1148 39.3887C25.926 41.4056 25.233 45.2642 27.5976 48.002C29.0163 49.6444 30.88 50.4346 33.0172 50.4407C42.8789 50.4674 52.7407 50.4589 62.6024 50.4455C64.1123 50.4431 65.5116 49.9921 66.7589 49.1253C70.2905 46.6708 70.2722 41.9599 66.7212 39.5431C65.3559 38.6143 63.8315 38.2448 62.1866 38.2509C57.4077 38.2667 52.6288 38.2557 47.8499 38.2557L47.8487 38.2521Z" fill="white"/>
<path d="M67.7595 5.42579C66.7748 6.08348 65.8642 6.69133 64.9366 7.31133C64.7713 6.07011 66.4465 4.82037 67.7595 5.42579Z" fill="white"/>
<path d="M31.8925 48.7763C29.4307 48.7702 27.4808 46.7996 27.4881 44.3256C27.4954 41.8833 29.4879 39.8956 31.9363 39.8908C34.4005 39.8847 36.3675 41.8882 36.3602 44.3974C36.3529 46.8567 34.3884 48.7836 31.8925 48.7763Z" fill="white"/>
<path d="M63.491 48.7836C61.0037 48.7605 59.05 46.8008 59.0695 44.3463C59.0889 41.8492 61.0754 39.8749 63.5542 39.892C66.0063 39.909 67.9878 41.955 67.955 44.4387C67.9234 46.847 65.9114 48.8055 63.491 48.7836Z" fill="white"/>
<path d="M57.4076 44.3426C57.4282 46.8069 55.4807 48.7666 52.997 48.7799C50.5377 48.7921 48.5378 46.8239 48.5269 44.3791C48.516 41.9319 50.5012 39.909 52.9302 39.892C55.4102 39.8737 57.3857 41.8383 57.4064 44.3426H57.4076Z" fill="white"/>
<path d="M42.4304 48.7836C39.9977 48.7787 38.0247 46.8178 38.0137 44.3937C38.0016 41.9064 39.9892 39.892 42.4595 39.8883C44.9116 39.8847 46.9284 41.9234 46.9139 44.39C46.8993 46.8275 44.8982 48.7872 42.4316 48.7824L42.4304 48.7836Z" fill="white"/>
</svg>
