<svg width="20" height="20" viewBox="0 0 20 20" fill="none" xmlns="http://www.w3.org/2000/svg">
<path d="M10 0C7.35831 0.0336892 4.8343 1.09807 2.96618 2.96618C1.09807 4.8343 0.0336892 7.35831 0 10C0.0123489 11.5389 0.379721 13.0542 1.07351 14.4279C1.7673 15.8016 2.76879 16.9967 4 17.92V18H4.1C5.79318 19.2975 7.86685 20.0006 10 20.0006C12.1332 20.0006 14.2068 19.2975 15.9 18H16V17.92C17.2312 16.9967 18.2327 15.8016 18.9265 14.4279C19.6203 13.0542 19.9877 11.5389 20 10C19.9663 7.35831 18.9019 4.8343 17.0338 2.96618C15.1657 1.09807 12.6417 0.0336892 10 0ZM6.07 16.93C6.21599 16.2614 6.58615 15.6629 7.11908 15.2336C7.65202 14.8044 8.31569 14.5702 9 14.57H11C11.6843 14.5702 12.348 14.8044 12.8809 15.2336C13.4138 15.6629 13.784 16.2614 13.93 16.93C12.7389 17.6308 11.382 18.0004 10 18.0004C8.618 18.0004 7.26113 17.6308 6.07 16.93ZM15.61 15.64C15.2296 14.7309 14.5891 13.9546 13.7689 13.4084C12.9487 12.8622 11.9854 12.5705 11 12.57H9C8.01458 12.5705 7.05127 12.8622 6.23108 13.4084C5.41088 13.9546 4.77037 14.7309 4.39 15.64C3.64066 14.903 3.0439 14.0255 2.63381 13.0578C2.22373 12.0901 2.00835 11.051 2 10C2.02594 7.88633 2.87712 5.86653 4.37183 4.37183C5.86653 2.87712 7.88633 2.02594 10 2C12.1137 2.02594 14.1335 2.87712 15.6282 4.37183C17.1229 5.86653 17.9741 7.88633 18 10C17.9916 11.051 17.7763 12.0901 17.3662 13.0578C16.9561 14.0255 16.3593 14.903 15.61 15.64Z" fill="#1E1712"/>
<path d="M10.0001 4.00008C9.47143 3.98777 8.94577 4.08282 8.4549 4.27947C7.96403 4.47613 7.51815 4.77032 7.14424 5.14424C6.77032 5.51815 6.47613 5.96403 6.27947 6.4549C6.08282 6.94577 5.98777 7.47143 6.00008 8.00008C5.98777 8.52874 6.08282 9.0544 6.27947 9.54527C6.47613 10.0361 6.77032 10.482 7.14424 10.8559C7.51815 11.2298 7.96403 11.524 8.4549 11.7207C8.94577 11.9174 9.47143 12.0124 10.0001 12.0001C10.5287 12.0124 11.0544 11.9174 11.5453 11.7207C12.0361 11.524 12.482 11.2298 12.8559 10.8559C13.2298 10.482 13.524 10.0361 13.7207 9.54527C13.9174 9.0544 14.0124 8.52874 14.0001 8.00008C14.0124 7.47143 13.9174 6.94577 13.7207 6.4549C13.524 5.96403 13.2298 5.51815 12.8559 5.14424C12.482 4.77032 12.0361 4.47613 11.5453 4.27947C11.0544 4.08282 10.5287 3.98777 10.0001 4.00008ZM10.0001 10.0001C9.73403 10.0129 9.46824 9.97002 9.21976 9.87406C8.97128 9.7781 8.74563 9.63123 8.55728 9.44289C8.36894 9.25454 8.22207 9.02888 8.12611 8.78041C8.03015 8.53193 7.98722 8.26613 8.00008 8.00008C7.98722 7.73403 8.03015 7.46824 8.12611 7.21976C8.22207 6.97128 8.36894 6.74563 8.55728 6.55728C8.74563 6.36894 8.97128 6.22207 9.21976 6.12611C9.46824 6.03015 9.73403 5.98722 10.0001 6.00008C10.2661 5.98722 10.5319 6.03015 10.7804 6.12611C11.0289 6.22207 11.2545 6.36894 11.4429 6.55728C11.6312 6.74563 11.7781 6.97128 11.8741 7.21976C11.97 7.46824 12.0129 7.73403 12.0001 8.00008C12.0129 8.26613 11.97 8.53193 11.8741 8.78041C11.7781 9.02888 11.6312 9.25454 11.4429 9.44289C11.2545 9.63123 11.0289 9.7781 10.7804 9.87406C10.5319 9.97002 10.2661 10.0129 10.0001 10.0001Z" fill="#1E1712"/>
</svg>
