<svg width="88" height="27" viewBox="0 0 88 27" fill="none" xmlns="http://www.w3.org/2000/svg">
<path d="M41.6573 24.3914C35.4822 24.3914 29.307 24.3754 23.1319 24.4075C22.2125 24.4121 21.9311 24.2494 22.1328 23.2736C22.8504 19.8032 21.3729 16.9628 18.8048 14.8463C16.0444 12.5716 12.7258 12.4411 9.45178 13.9025C6.06283 15.4143 4.05996 18.7885 4.39299 22.4306C4.49383 23.5416 4.05292 23.5118 3.23441 23.3698C2.22359 23.1934 1.50828 22.7628 1.21981 21.7297C0.891468 20.5523 0.492768 19.3955 0.117522 18.2319C-0.133424 17.453 -0.00677854 16.7956 0.734333 16.3375C1.84131 15.6549 2.2705 14.6836 2.16027 13.4215C2.08053 12.5121 2.54959 11.9692 3.43611 11.6118C7.80069 9.8572 12.2497 8.57672 17.0482 8.72562C21.1688 8.85389 24.9729 7.62152 28.6386 5.8852C31.7297 4.42147 34.7387 2.79052 37.9166 1.50317C40.3627 0.513604 42.8628 -0.0842583 45.5458 0.00965874C51.0221 0.131064 52.6262 0.103576 59.7184 0.266213C63.506 0.676241 67.1506 1.54669 70.6099 3.20513C75.1973 5.40187 79.9723 7.05344 85.1718 7.11299C85.8309 7.11986 85.988 7.41765 85.9434 7.95367C85.7441 10.3474 86.7268 12.4892 87.5382 14.6401C88.8868 18.2181 87.2005 21.4617 83.4387 22.2497C82.7914 22.3848 82.1323 22.4879 81.4733 22.552C79.2406 22.7628 79.3016 22.6368 78.8302 20.5546C77.688 15.5083 74.4585 12.338 68.5132 13.1489C63.7148 13.804 60.2578 18.5044 61.1232 23.1774C61.285 24.0478 61.2053 24.3433 60.1804 24.3365C54.0053 24.2861 47.8325 24.3113 41.6573 24.3113V24.3914V24.3914ZM33.4863 9.49528C33.8921 9.55942 34.1899 9.64646 34.4901 9.64875C39.6849 9.65333 44.8821 9.6373 50.0769 9.65333C50.6679 9.65333 50.9095 9.38762 51.0666 8.902C51.6553 7.08551 52.2791 5.28047 52.842 3.45481C53.1844 2.34613 52.9522 1.9132 51.789 1.8376C48.3602 1.61541 44.9126 1.48026 41.5236 2.18808C38.5756 2.80197 36.0755 4.43292 33.4887 5.84168C32.9399 6.13946 32.4051 6.46015 31.6781 6.87476C34.4315 7.2825 34.6238 7.57112 33.4863 9.49528V9.49528ZM61.8057 9.64188C63.9118 9.64188 66.0202 9.61439 68.1263 9.65562C68.9565 9.67166 69.456 9.30974 69.7891 8.64544C70.1221 7.97886 70.101 7.30999 69.6319 6.70296C69.1019 6.02035 68.3819 5.56451 67.6126 5.17739C64.4277 3.56934 60.9989 2.69889 57.5115 2.02544C56.1723 1.76659 55.3608 2.39423 55.063 3.69991C54.6877 5.35148 54.7253 7.02824 54.6924 8.705C54.676 9.48612 55.0044 9.66937 55.7337 9.65562C57.7577 9.61897 59.7817 9.64417 61.8057 9.64188V9.64188Z" fill="white"/>
<path d="M19.4871 20.9234C19.4965 24.3021 16.7807 26.9867 13.3472 26.9936C9.90427 27.0005 7.13449 24.3365 7.10165 21.0013C7.06647 17.4782 9.81515 14.9379 13.1361 14.8394C16.708 14.734 19.4801 17.4599 19.4871 20.9234Z" fill="white"/>
<path d="M63.7968 20.9784C63.6701 17.476 66.5314 14.9379 69.8218 14.8257C73.2624 14.7089 76.201 17.5928 76.1823 20.9555C76.1635 24.3044 73.4101 26.9914 69.986 26.9983C66.5455 27.0051 63.8108 24.3434 63.7991 20.9761L63.7968 20.9784Z" fill="white"/>
</svg>
