<svg width="124" height="124" viewBox="0 0 124 124" fill="none" xmlns="http://www.w3.org/2000/svg">
<path d="M124 62C124 96.2417 96.2417 124 62 124C27.7583 124 0 96.2417 0 62C0 27.7583 27.7583 0 62 0C96.2417 0 124 27.7583 124 62Z" fill="url(#paint0_angular_595_355)"/>
<path d="M59.6573 73.3914C53.4822 73.3914 47.307 73.3754 41.1319 73.4075C40.2125 73.4121 39.9311 73.2494 40.1328 72.2736C40.8504 68.8032 39.3729 65.9628 36.8048 63.8463C34.0444 61.5716 30.7258 61.4411 27.4518 62.9025C24.0628 64.4143 22.06 67.7885 22.393 71.4306C22.4938 72.5416 22.0529 72.5118 21.2344 72.3698C20.2236 72.1934 19.5083 71.7628 19.2198 70.7297C18.8915 69.5523 18.4928 68.3955 18.1175 67.2319C17.8666 66.453 17.9932 65.7956 18.7343 65.3375C19.8413 64.6549 20.2705 63.6836 20.1603 62.4215C20.0805 61.5121 20.5496 60.9692 21.4361 60.6118C25.8007 58.8572 30.2497 57.5767 35.0482 57.7256C39.1688 57.8539 42.9729 56.6215 46.6386 54.8852C49.7297 53.4215 52.7387 51.7905 55.9166 50.5032C58.3627 49.5136 60.8628 48.9157 63.5458 49.0097C69.0221 49.1311 70.6262 49.1036 77.7184 49.2662C81.506 49.6762 85.1506 50.5467 88.6099 52.2051C93.1973 54.4019 97.9723 56.0534 103.172 56.113C103.831 56.1199 103.988 56.4177 103.943 56.9537C103.744 59.3474 104.727 61.4892 105.538 63.6401C106.887 67.2181 105.201 70.4617 101.439 71.2497C100.791 71.3848 100.132 71.4879 99.4733 71.552C97.2406 71.7628 97.3016 71.6368 96.8302 69.5546C95.688 64.5083 92.4585 61.338 86.5132 62.1489C81.7148 62.804 78.2578 67.5044 79.1232 72.1774C79.285 73.0478 79.2053 73.3433 78.1804 73.3365C72.0053 73.2861 65.8325 73.3113 59.6573 73.3113V73.3914ZM51.4863 58.4953C51.8921 58.5594 52.1899 58.6465 52.4901 58.6488C57.6849 58.6533 62.8821 58.6373 68.0769 58.6533C68.6679 58.6533 68.9095 58.3876 69.0666 57.902C69.6553 56.0855 70.2791 54.2805 70.842 52.4548C71.1844 51.3461 70.9522 50.9132 69.789 50.8376C66.3602 50.6154 62.9126 50.4803 59.5236 51.1881C56.5756 51.802 54.0755 53.4329 51.4887 54.8417C50.9399 55.1395 50.4051 55.4602 49.6781 55.8748C52.4315 56.2825 52.6238 56.5711 51.4863 58.4953ZM79.8057 58.6419C81.9118 58.6419 84.0202 58.6144 86.1263 58.6556C86.9565 58.6717 87.456 58.3097 87.7891 57.6454C88.1221 56.9789 88.101 56.31 87.6319 55.703C87.1019 55.0203 86.3819 54.5645 85.6126 54.1774C82.4277 52.5693 78.9989 51.6989 75.5115 51.0254C74.1723 50.7666 73.3608 51.3942 73.063 52.6999C72.6877 54.3515 72.7253 56.0282 72.6924 57.705C72.676 58.4861 73.0044 58.6694 73.7337 58.6556C75.7577 58.619 77.7817 58.6442 79.8057 58.6419Z" fill="white"/>
<path d="M37.4871 69.9234C37.4965 73.3021 34.7807 75.9867 31.3472 75.9936C27.9043 76.0005 25.1345 73.3365 25.1017 70.0013C25.0665 66.4782 27.8152 63.9379 31.1361 63.8394C34.708 63.734 37.4801 66.4599 37.4871 69.9234Z" fill="white"/>
<path d="M81.7968 69.9784C81.6701 66.476 84.5314 63.9379 87.8218 63.8257C91.2624 63.7089 94.201 66.5928 94.1823 69.9555C94.1635 73.3044 91.4101 75.9914 87.986 75.9983C84.5455 76.0051 81.8108 73.3434 81.7991 69.9761L81.7968 69.9784Z" fill="white"/>
<defs>
<radialGradient id="paint0_angular_595_355" cx="0" cy="0" r="1" gradientUnits="userSpaceOnUse" gradientTransform="translate(62 62) rotate(90) scale(62)">
<stop offset="0.0270211" stop-color="#ED1707" stop-opacity="0.9"/>
<stop offset="0.375" stop-color="#FF6400"/>
<stop offset="0.667671" stop-color="#B9C6C4"/>
<stop offset="0.889695" stop-color="#E8762D"/>
</radialGradient>
</defs>
</svg>
